<?xml version="1.0" standalone="no"?>
<!DOCTYPE svg PUBLIC "-//W3C//DTD SVG 20010904//EN"
 "http://www.w3.org/TR/2001/REC-SVG-20010904/DTD/svg10.dtd">
<svg version="1.0" xmlns="http://www.w3.org/2000/svg"
 width="142.000000pt" height="131.000000pt" viewBox="0 0 142.000000 131.000000"
 preserveAspectRatio="xMidYMid meet">

<g transform="translate(0.000000,131.000000) scale(0.100000,-0.100000)"
fill="#000000" stroke="none">
<path d="M827 1205 c-21 -33 -35 -45 -53 -45 -23 0 -24 -3 -24 -62 l0 -63 71
-17 c124 -30 209 -102 266 -224 24 -51 28 -72 28 -149 0 -82 -3 -97 -33 -157
-56 -115 -141 -184 -265 -214 l-67 -17 0 -63 c0 -61 1 -64 25 -64 17 0 32 -12
54 -43 l30 -43 65 20 66 21 0 52 c0 50 2 53 46 88 53 40 60 41 112 20 l37 -16
27 33 c14 18 34 45 42 59 15 25 14 28 -14 64 -34 43 -34 43 -11 110 16 46 21
51 67 66 l49 16 3 70 3 70 -53 14 c-52 14 -52 14 -71 75 l-20 61 32 41 33 40
-41 56 c-23 31 -43 56 -45 56 -1 0 -23 -7 -49 -16 l-47 -16 -50 37 c-49 36
-50 38 -50 89 l0 52 -57 18 c-32 10 -62 20 -68 22 -5 2 -23 -16 -38 -41z"/>
<path d="M314 1208 c-22 -10 -44 -47 -44 -72 0 -22 40 -66 60 -66 10 0 21 -6
23 -12 4 -10 6 -10 6 0 1 6 7 12 14 12 24 0 47 36 47 73 0 27 -7 41 -26 56
-29 23 -48 25 -80 9z"/>
<path d="M575 1160 c-34 -13 -46 -36 -43 -77 3 -35 -1 -41 -46 -75 -53 -40
-61 -44 -71 -28 -3 6 -15 10 -25 10 -11 0 -20 9 -23 23 l-4 22 -2 -22 c0 -13
-5 -23 -11 -23 -19 0 -50 -45 -50 -72 0 -17 10 -39 23 -52 13 -13 22 -28 21
-35 -1 -6 0 -7 3 -1 2 5 16 10 29 10 14 0 37 12 51 26 21 21 25 32 20 62 -4
35 -2 39 45 74 48 35 50 36 77 20 24 -13 33 -14 59 -3 64 27 64 118 0 140 -17
6 -31 11 -32 10 -1 0 -10 -4 -21 -9z"/>
<path d="M70 883 c-16 -20 -20 -36 -16 -58 9 -45 30 -60 82 -59 40 1 48 -3 71
-33 20 -26 23 -37 15 -45 -15 -15 -16 -75 -1 -83 6 -4 8 -14 5 -22 -3 -8 -2
-12 2 -9 4 2 23 1 42 -3 30 -6 39 -4 63 21 34 35 35 71 1 105 -21 21 -32 25
-63 20 -34 -4 -41 -1 -66 30 -20 26 -24 38 -16 46 16 16 14 69 -5 95 -23 34
-86 31 -114 -5z"/>
<path d="M193 537 c-15 -19 -25 -22 -59 -19 -36 3 -44 0 -63 -24 -38 -48 -16
-108 44 -120 61 -12 106 57 75 116 -7 13 -4 24 11 44 11 14 18 26 15 26 -2 0
-13 -10 -23 -23z"/>
<path d="M311 540 c0 -8 4 -24 9 -35 5 -13 9 -14 9 -5 0 8 -4 24 -9 35 -5 13
-9 14 -9 5z"/>
<path d="M314 425 c-62 -62 7 -161 83 -121 26 13 29 12 74 -27 43 -37 46 -43
42 -78 -10 -73 71 -116 122 -64 64 63 -13 159 -94 116 -13 -8 -28 -1 -64 30
-41 35 -46 43 -40 70 15 74 -71 126 -123 74z"/>
<path d="M342 255 c0 -16 2 -22 5 -12 2 9 2 23 0 30 -3 6 -5 -1 -5 -18z"/>
<path d="M304 195 c-51 -21 -60 -80 -18 -122 20 -20 31 -24 57 -19 80 15 91
116 16 145 -17 6 -35 5 -55 -4z"/>
</g>
</svg>
