<svg xmlns="http://www.w3.org/2000/svg" viewBox="0 0 24 24"><defs><style>.a{fill:none;stroke:#000;stroke-linecap:round;stroke-linejoin:round;stroke-width:1.5px;}</style></defs><title>human-resources-hierarchy-woman</title><path class="a" d="M14.249,20.25h-1a.51.51,0,0,1-.5-.519V3.518a.509.509,0,0,1,.5-.518h1"/><circle class="a" cx="19.499" cy="3" r="2.25"/><path class="a" d="M23.249,9A4.047,4.047,0,0,0,19.5,6a4.047,4.047,0,0,0-3.75,3Z"/><circle class="a" cx="19.499" cy="17.25" r="2.25"/><path class="a" d="M23.249,23.25a4.047,4.047,0,0,0-3.75-3,4.047,4.047,0,0,0-3.75,3Z"/><path class="a" d="M.749,18a4.5,4.5,0,0,1,9,0Z"/><path class="a" d="M8.454,9.235V10a4.506,4.506,0,0,0,.657,2.5"/><path class="a" d="M2.155,9.235V10A4.515,4.515,0,0,1,1.5,12.5"/><path class="a" d="M2.164,9.4A4.19,4.19,0,0,0,5.305,7.951,4.187,4.187,0,0,0,8.445,9.4"/><circle class="a" cx="5.305" cy="9.15" r="3.151"/><line class="a" x1="12.749" y1="11.25" x2="11.249" y2="11.25"/></svg>